<svg width="16" height="16" viewBox="0 0 16 16" fill="none" xmlns="http://www.w3.org/2000/svg">
<path d="M12.6667 12.6667H3.33333V3.33333H12.6667M12.6667 2H3.33333C2.97971 2 2.64057 2.14048 2.39052 2.39052C2.14048 2.64057 2 2.97971 2 3.33333V12.6667C2 13.0203 2.14048 13.3594 2.39052 13.6095C2.64057 13.8595 2.97971 14 3.33333 14H12.6667C13.0203 14 13.3594 13.8595 13.6095 13.6095C13.8595 13.3594 14 13.0203 14 12.6667V3.33333C14 2.97971 13.8595 2.64057 13.6095 2.39052C13.3594 2.14048 13.0203 2 12.6667 2ZM11 10.8333C11 9.83333 9 9.33333 8 9.33333C7 9.33333 5 9.83333 5 10.8333V11.3333H11M8 8.16667C8.39782 8.16667 8.77936 8.00863 9.06066 7.72733C9.34196 7.44602 9.5 7.06449 9.5 6.66667C9.5 6.26884 9.34196 5.88731 9.06066 5.60601C8.77936 5.3247 8.39782 5.16667 8 5.16667C7.60218 5.16667 7.22064 5.3247 6.93934 5.60601C6.65804 5.88731 6.5 6.26884 6.5 6.66667C6.5 7.06449 6.65804 7.44602 6.93934 7.72733C7.22064 8.00863 7.60218 8.16667 8 8.16667Z" fill="#0B0B0B"/>
</svg>
