<svg width="14" height="7" viewBox="0 0 14 7" fill="none" xmlns="http://www.w3.org/2000/svg">
<path fill-rule="evenodd" clip-rule="evenodd" d="M0.645978 0.146008C0.692424 0.0994453 0.7476 0.0625023 0.808345 0.0372958C0.86909 0.0120894 0.934211 -0.00088501 0.999978 -0.00088501C1.06575 -0.00088501 1.13087 0.0120894 1.19161 0.0372958C1.25236 0.0625023 1.30753 0.0994453 1.35398 0.146008L6.99998 5.79301L12.646 0.146008C12.6925 0.0995205 12.7477 0.0626442 12.8084 0.0374851C12.8691 0.012326 12.9342 -0.000623226 13 -0.000623226C13.0657 -0.000623226 13.1308 0.012326 13.1916 0.0374851C13.2523 0.0626442 13.3075 0.0995205 13.354 0.146008C13.4005 0.192496 13.4373 0.247686 13.4625 0.308425C13.4877 0.369164 13.5006 0.434265 13.5006 0.500009C13.5006 0.565752 13.4877 0.630853 13.4625 0.691592C13.4373 0.752332 13.4005 0.807521 13.354 0.854009L7.35398 6.85401C7.30753 6.90057 7.25236 6.93751 7.19161 6.96272C7.13087 6.98793 7.06575 7.0009 6.99998 7.0009C6.93421 7.0009 6.86909 6.98793 6.80834 6.96272C6.7476 6.93751 6.69242 6.90057 6.64598 6.85401L0.645978 0.854009C0.599415 0.807563 0.562472 0.752387 0.537266 0.691642C0.512059 0.630897 0.499084 0.565776 0.499084 0.500009C0.499084 0.434241 0.512059 0.36912 0.537266 0.308375C0.562472 0.24763 0.599415 0.192454 0.645978 0.146008Z" fill="black"/>
</svg>
