<svg width="16" height="16" viewBox="0 0 16 16" fill="none" xmlns="http://www.w3.org/2000/svg">
<path d="M2 4.66668C2 4.31305 2.14048 3.97392 2.39052 3.72387C2.64057 3.47382 2.97971 3.33334 3.33333 3.33334H12.6667C13.0203 3.33334 13.3594 3.47382 13.6095 3.72387C13.8595 3.97392 14 4.31305 14 4.66668V11.3333C14 11.687 13.8595 12.0261 13.6095 12.2762C13.3594 12.5262 13.0203 12.6667 12.6667 12.6667H3.33333C2.97971 12.6667 2.64057 12.5262 2.39052 12.2762C2.14048 12.0261 2 11.687 2 11.3333V4.66668Z" stroke="#0B0B0B" stroke-width="1.2" stroke-linecap="round" stroke-linejoin="round"/>
<path d="M2 4.66669L8 8.66669L14 4.66669" stroke="#0B0B0B" stroke-width="1.2" stroke-linecap="round" stroke-linejoin="round"/>
</svg>
